<svg width="206" height="49" viewBox="0 0 206 49" fill="none" xmlns="http://www.w3.org/2000/svg">
<path d="M51.6488 18.1844C51.5809 18.1844 51.5211 18.2295 51.502 18.2951L49.031 26.8002C48.9884 26.9468 48.7824 26.9482 48.738 26.8021L46.1465 18.2932C46.1268 18.2286 46.0675 18.1844 46.0002 18.1844H40.5683C40.5011 18.1844 40.4418 18.2286 40.4221 18.2932L37.8306 26.8021C37.7861 26.9482 37.5802 26.9468 37.5376 26.8002L35.0665 18.2951C35.0475 18.2295 34.9877 18.1844 34.9197 18.1844H30.1531C30.049 18.1844 29.9753 18.2867 30.0077 18.3862L34.1055 30.9861C34.1261 31.0494 34.1848 31.0922 34.2509 31.0922H41.0698C41.1381 31.0922 41.1982 31.0465 41.2169 30.9804L43.1371 24.1819C43.1793 24.0328 43.3893 24.0328 43.4314 24.1819L45.3517 30.9804C45.3704 31.0465 45.4304 31.0922 45.4988 31.0922H52.3177C52.3838 31.0922 52.4425 31.0494 52.463 30.9861L56.5609 18.3862C56.5932 18.2867 56.5196 18.1844 56.4155 18.1844H51.6488Z" fill="#121212"/>
<path d="M62.8991 18.3383C62.8991 18.2533 62.8306 18.1844 62.7461 18.1844H58.3065C58.222 18.1844 58.1535 18.2533 58.1535 18.3383V30.9383C58.1535 31.0233 58.222 31.0922 58.3065 31.0922H62.7461C62.8306 31.0922 62.8991 31.0233 62.8991 30.9383V18.3383Z" fill="#121212"/>
<path d="M64.775 26.5376C64.6905 26.5376 64.6219 26.6086 64.6237 26.6936C64.7025 30.3976 67.6141 31.2766 72.7807 31.2766C78.019 31.2766 80.9393 30.373 80.9393 26.8142C80.9393 23.4397 77.8182 23.0894 72.7807 22.8865C70.0064 22.7759 69.5501 22.7943 69.5501 22.2965C69.5501 21.7986 70.0064 21.6879 72.2331 21.6879C74.3676 21.6879 75.4651 21.813 75.6256 22.3655C75.6493 22.4471 75.7147 22.5177 75.7992 22.5177H80.2388C80.3233 22.5177 80.392 22.4473 80.3896 22.3623C80.3021 19.1787 77.502 18 72.5982 18C67.5606 18 64.8045 19.217 64.8045 22.0567C64.8045 25.0624 67.013 26.0213 72.7807 26.2057C75.774 26.2979 76.1938 26.3716 76.1938 26.9248C76.1938 27.4043 75.774 27.5887 72.9632 27.5887C70.204 27.5887 69.4825 27.2326 69.3809 26.6908C69.3653 26.6073 69.2991 26.5376 69.2146 26.5376H64.775Z" fill="#121212"/>
<path d="M95.0488 18.1844C94.9643 18.1844 94.8958 18.2533 94.8958 18.3383V22.456C94.8958 22.541 94.8274 22.6099 94.7429 22.6099H87.5655C87.481 22.6099 87.4125 22.541 87.4125 22.456V18.3383C87.4125 18.2533 87.344 18.1844 87.2595 18.1844H82.82C82.7355 18.1844 82.667 18.2533 82.667 18.3383V30.9383C82.667 31.0233 82.7355 31.0922 82.82 31.0922H87.2595C87.344 31.0922 87.4125 31.0233 87.4125 30.9383V26.8206C87.4125 26.7356 87.481 26.6667 87.5655 26.6667H94.7429C94.8274 26.6667 94.8958 26.7356 94.8958 26.8206V30.9383C94.8958 31.0233 94.9643 31.0922 95.0488 31.0922H99.4884C99.5729 31.0922 99.6414 31.0233 99.6414 30.9383V18.3383C99.6414 18.2533 99.5729 18.1844 99.4884 18.1844H95.0488Z" fill="#121212"/>
<path d="M121.333 18.3383C121.333 18.2533 121.265 18.1844 121.18 18.1844H115.584C115.528 18.1844 115.476 18.2155 115.449 18.2654L111.685 25.3082C111.627 25.4163 111.473 25.4163 111.415 25.3082L107.651 18.2654C107.624 18.2155 107.573 18.1844 107.516 18.1844H101.92C101.836 18.1844 101.767 18.2533 101.767 18.3383V30.9383C101.767 31.0233 101.836 31.0922 101.92 31.0922H106.36C106.444 31.0922 106.513 31.0233 106.513 30.9383V25.5315C106.513 25.3736 106.721 25.3181 106.798 25.4551L109.955 31.0146C109.982 31.0626 110.033 31.0922 110.087 31.0922H113.013C113.068 31.0922 113.118 31.0626 113.146 31.0146L116.302 25.4551C116.38 25.3181 116.588 25.3736 116.588 25.5315V30.9383C116.588 31.0233 116.656 31.0922 116.741 31.0922H121.18C121.265 31.0922 121.333 31.0233 121.333 30.9383V18.3383Z" fill="#121212"/>
<path d="M135.054 30.9929C135.076 31.0527 135.133 31.0922 135.197 31.0922H140.083C140.192 31.0922 140.266 30.9809 140.224 30.8795L135.057 18.2796C135.034 18.222 134.978 18.1844 134.916 18.1844H128.075C128.013 18.1844 127.957 18.222 127.934 18.2796L122.767 30.8795C122.725 30.9809 122.8 31.0922 122.908 31.0922H127.794C127.858 31.0922 127.915 31.0527 127.937 30.9929L128.739 28.8681C128.761 28.8083 128.818 28.7688 128.882 28.7688H134.11C134.173 28.7688 134.23 28.8083 134.253 28.8681L135.054 30.9929ZM130.238 25.4496C130.131 25.4496 130.057 25.3421 130.095 25.2414L131.352 21.8856C131.402 21.7527 131.589 21.7527 131.639 21.8856L132.896 25.2414C132.934 25.3421 132.86 25.4496 132.753 25.4496H130.238Z" fill="#121212"/>
<path d="M140.731 26.5376C140.646 26.5376 140.578 26.6086 140.58 26.6936C140.658 30.3976 143.57 31.2766 148.737 31.2766C153.975 31.2766 156.895 30.373 156.895 26.8142C156.895 23.4397 153.774 23.0894 148.737 22.8865C145.962 22.7759 145.506 22.7943 145.506 22.2965C145.506 21.7986 145.962 21.6879 148.189 21.6879C150.323 21.6879 151.421 21.813 151.581 22.3655C151.605 22.4471 151.671 22.5177 151.755 22.5177H156.195C156.279 22.5177 156.348 22.4473 156.346 22.3623C156.258 19.1787 153.458 18 148.554 18C143.517 18 140.76 19.217 140.76 22.0567C140.76 25.0624 142.969 26.0213 148.737 26.2057C151.73 26.2979 152.15 26.3716 152.15 26.9248C152.15 27.4043 151.73 27.5886 148.919 27.5886C146.16 27.5886 145.438 27.2326 145.337 26.6908C145.321 26.6072 145.255 26.5376 145.17 26.5376H140.731Z" fill="#121212"/>
<path d="M173.573 18.3383C173.573 18.2533 173.505 18.1844 173.42 18.1844H158.03C157.945 18.1844 157.877 18.2533 157.877 18.3383V22.0872C157.877 22.1722 157.945 22.2411 158.03 22.2411H163.199C163.284 22.2411 163.352 22.3101 163.352 22.3951V30.9383C163.352 31.0233 163.421 31.0922 163.505 31.0922H167.945C168.029 31.0922 168.098 31.0233 168.098 30.9383V22.3951C168.098 22.3101 168.166 22.2411 168.251 22.2411H173.42C173.505 22.2411 173.573 22.1722 173.573 22.0872V18.3383Z" fill="#121212"/>
<path d="M188.651 21.8723C188.736 21.8723 188.804 21.8034 188.804 21.7184V18.3383C188.804 18.2533 188.736 18.1844 188.651 18.1844H175.451C175.366 18.1844 175.298 18.2533 175.298 18.3383V30.9383C175.298 31.0233 175.366 31.0922 175.451 31.0922H188.651C188.736 31.0922 188.804 31.0233 188.804 30.9383V27.5582C188.804 27.4732 188.736 27.4043 188.651 27.4043H180.196C180.112 27.4043 180.043 27.3353 180.043 27.2503V26.3596C180.043 26.2746 180.112 26.2057 180.196 26.2057H188.651C188.736 26.2057 188.804 26.1368 188.804 26.0517V23.2249C188.804 23.1398 188.736 23.0709 188.651 23.0709H180.196C180.112 23.0709 180.043 23.002 180.043 22.917V22.0263C180.043 21.9413 180.112 21.8723 180.196 21.8723H188.651Z" fill="#121212"/>
<path d="M205.66 23.1262C205.66 20.2496 203.67 18.1844 200.768 18.1844H190.882C190.798 18.1844 190.729 18.2533 190.729 18.3383V30.9383C190.729 31.0233 190.798 31.0922 190.882 31.0922H195.322C195.406 31.0922 195.475 31.0233 195.475 30.9383V28.222C195.475 28.137 195.543 28.0681 195.628 28.0681H198.18C198.234 28.0681 198.284 28.0969 198.312 28.1439L199.994 31.0164C200.021 31.0634 200.071 31.0922 200.125 31.0922H205.386C205.506 31.0922 205.579 30.9602 205.516 30.8577L203.478 27.5197C203.433 27.4462 203.457 27.3502 203.53 27.3039C204.856 26.4565 205.66 24.9469 205.66 23.1262ZM195.475 22.3951C195.475 22.3101 195.543 22.2411 195.628 22.2411H199.855C200.33 22.2411 200.914 22.2411 200.914 23.1262C200.914 24.0113 200.33 24.0113 199.855 24.0113H195.628C195.543 24.0113 195.475 23.9424 195.475 23.8574V22.3951Z" fill="#121212"/>
<path d="M3.05664 17.1192C3.05664 20.135 7.67434 22.4192 4.72867 22.4192C3.38566 22.4192 2.6506 22.943 1.71291 22.1042C0.593941 21.1033 -0.309583 19.0213 0.100783 17.1192C0.671216 14.4752 2.10431 12.5781 6.52454 11.4512C9.47021 11.4512 3.05664 14.1034 3.05664 17.1192Z" fill="url(#paint0_linear_22_1928)"/>
<path d="M16.9434 17.1192C16.9434 20.135 15.8258 21.6075 15.8258 22.8543C15.8258 23.0625 17.3494 22.943 18.2871 22.1042C19.4061 21.1033 20.3096 19.0213 19.8992 17.1192C19.3288 14.4752 17.8957 12.5781 13.4755 11.4512C10.5298 11.4512 16.9434 14.1034 16.9434 17.1192Z" fill="url(#paint1_linear_22_1928)"/>
<path d="M5.68571 12.6586C5.66928 12.758 5.75455 12.8435 5.85139 12.8243C6.19432 12.7565 6.55282 12.6857 6.91128 12.6857C7.77599 12.6857 8.59883 12.8686 9.34469 13.1986C9.67933 13.3467 9.84665 13.4207 9.97282 13.4207C10.099 13.4207 10.2663 13.3467 10.601 13.1986C11.3468 12.8686 12.1697 12.6857 13.0344 12.6857C13.3233 12.6857 13.6122 12.7517 13.893 12.8159C13.9298 12.8243 13.9666 12.8327 14.0031 12.8409C14.1892 12.8827 14.3486 12.7182 14.3169 12.5262C14.291 12.3694 14.3944 12.2194 14.5495 12.2061C15.0364 12.1643 15.5276 12.2307 15.9888 12.4022C16.5386 12.6066 17.027 12.9533 17.4064 13.4084C17.7857 13.8635 18.0431 14.4114 18.1532 14.9985C18.1721 15.0995 18.1866 15.2011 18.1966 15.3029C18.2111 15.4506 18.245 15.5964 18.3102 15.7292C18.3685 15.8479 18.4346 15.9821 18.5086 16.1324C18.9237 16.9753 19.1574 17.9274 19.1574 18.9351C19.1574 20.2193 18.9617 21.1939 18.5421 21.7388C18.191 22.1948 16.8686 23.5578 14.606 22.627C13.2443 22.0669 11.3622 20.3002 10.4732 19.4467C10.4424 19.4172 10.4435 19.3676 10.4749 19.3387L12.508 17.466C12.5261 17.4493 12.5513 17.4431 12.5749 17.4495C13.1662 17.611 13.6959 17.8098 14.1478 18.0093C14.6694 18.2394 15.085 18.4693 15.369 18.6408C15.511 18.7265 15.6199 18.7975 15.6925 18.8465C15.7288 18.871 15.756 18.89 15.7737 18.9026C15.7746 18.9031 15.7753 18.9037 15.7761 18.9043C15.7825 18.9093 15.7891 18.914 15.7959 18.9185L15.7975 18.9196C15.8466 18.9513 15.9057 18.9683 15.9682 18.9647C16.1277 18.9555 16.2498 18.816 16.2408 18.653L16.1456 16.92C16.1367 16.7569 16.0001 16.6322 15.8406 16.6414C15.681 16.6505 15.559 16.7901 15.5679 16.9531L15.6296 18.0756C15.3296 17.8967 14.9088 17.6672 14.3892 17.438C13.2935 16.9545 11.7493 16.468 9.96741 16.468C8.18542 16.468 6.64301 16.9547 5.549 17.4385C5.02572 17.6699 4.60295 17.9016 4.30305 18.0812L4.3646 16.961C4.37355 16.798 4.2515 16.6585 4.09198 16.6493C3.93245 16.6401 3.79588 16.7649 3.78692 16.9279L3.6917 18.6609C3.68274 18.8239 3.8048 18.9635 3.96432 18.9726C4.03795 18.9769 4.10668 18.9526 4.16024 18.9092L4.16861 18.9032C4.18629 18.8906 4.21342 18.8716 4.24962 18.8471C4.32204 18.7981 4.43063 18.7271 4.57223 18.6413C4.85556 18.4698 5.27021 18.2398 5.79083 18.0096C6.8335 17.5485 8.2921 17.0903 9.96741 17.0903C10.5643 17.0903 11.1338 17.1484 11.667 17.2441C11.7259 17.2547 11.7465 17.3297 11.7021 17.3706L8.0811 20.7059L8.08106 20.7065L8.08103 20.7072C7.19581 21.4738 6.15766 22.2802 5.33426 22.629C3.13288 23.5613 1.68607 22.1883 1.39465 21.7436C1.03771 21.1989 0.788209 20.2193 0.788209 18.9351C0.788209 17.9274 1.02189 16.9754 1.43696 16.1325C1.56186 15.8789 1.65829 15.683 1.72894 15.5412C1.79055 15.4175 1.82716 15.2828 1.84694 15.1456C1.85401 15.0964 1.86214 15.0474 1.8713 14.9985C1.98141 14.4114 2.23872 13.8635 2.61809 13.4084C2.99746 12.9533 3.4859 12.6066 4.03566 12.4022C4.50581 12.2273 5.00704 12.1617 5.50313 12.2086C5.64258 12.2218 5.73562 12.3566 5.7123 12.4977L5.68571 12.6586Z" fill="url(#paint2_linear_22_1928)"/>
<path d="M7.4461 11.0653C7.58883 10.9919 7.93874 10.7457 7.93874 9.83203C7.93874 8.67588 6.77097 7.82804 6.77097 7.21142C6.77097 6.90312 6.99601 6.59481 7.37108 6.59481C7.37108 6.59481 7.37092 5.85353 7.37092 5.51597C7.37092 5.05328 7.45329 4.5144 7.84637 4.05128C8.11794 3.75072 8.56442 3.212 9.99659 3.212C11.4288 3.212 11.8761 3.75086 12.1472 4.05155C12.542 4.51477 12.6221 5.05328 12.6225 5.51574V6.59481C12.9972 6.59481 13.2222 6.90312 13.2222 7.21142C13.2222 7.82804 12.0544 8.67588 12.0544 9.83203C12.0544 10.7712 12.3956 10.9886 12.5364 11.0614C13.0515 11.3279 13.806 11.5354 14.4613 11.73C14.7459 11.9807 15.4971 12.9908 15.4971 12.9908L12.0383 14.8249H7.95485L4.21489 12.7484C4.21489 12.7484 5.53828 11.9028 5.86079 11.6329C6.32515 11.4922 6.97961 11.3049 7.4461 11.0653Z" fill="url(#paint3_linear_22_1928)"/>
<path d="M9.23402 3.33239C9.223 3.31493 9.21969 3.29441 9.22796 3.27542C9.26584 3.18846 9.3887 2.95513 9.40337 2.93271C9.45639 2.85169 9.61148 2.67922 9.97111 2.67925C10.3305 2.67929 10.5074 2.85163 10.5605 2.93271C10.575 2.95482 10.6853 3.17749 10.7227 3.26724C10.7318 3.289 10.7269 3.31232 10.7125 3.33085C10.6981 3.34939 10.6922 3.37307 10.6927 3.39672C10.6968 3.59062 10.5439 3.75459 10.3494 3.75459H9.59162C9.39543 3.75459 9.24149 3.58766 9.24851 3.39153C9.24926 3.37076 9.24504 3.34986 9.23402 3.33239Z" fill="url(#paint4_linear_22_1928)"/>
<path d="M13.8909 2.21006C13.8995 2.23252 13.9103 2.26718 13.8854 2.31414C13.4011 3.18003 12.3748 2.97096 11.9941 2.74493C11.4041 2.19927 10.7948 2.35727 10.472 2.35727C9.87276 2.35727 9.38632 2.82545 9.38632 2.82545C9.36204 2.80087 9.33832 2.77501 9.30586 2.73619C9.09033 2.45325 8.81966 2.04786 8.85069 1.44556C8.89489 0.587259 9.58185 0 10.3494 0C12.0777 0 12.0526 2.019 13.8085 2.16263C13.8449 2.16561 13.8823 2.1876 13.8909 2.21006Z" fill="url(#paint5_linear_22_1928)"/>
<path d="M11.9941 2.74493C11.2269 2.28951 10.7368 2.61135 10.4308 2.89802C10.109 3.19955 9.83897 3.22601 9.46206 2.89802C9.22948 2.69563 9.08197 2.39421 9.08197 2.05758C9.08197 1.44819 9.56538 0.95418 10.1617 0.95418C10.758 0.95418 12.0343 2.11814 11.9941 2.74493Z" fill="url(#paint6_linear_22_1928)"/>
<path d="M1.67324 17.9211V22.021C1.67324 22.021 1.49421 21.8842 1.43276 21.8004C0.569687 20.6231 0.339967 18.7729 0.675349 16.9035C1.16148 14.1939 3.22607 12.0859 5.18602 12.1977L3.12191 13.571L1.67324 17.9211Z" fill="url(#paint7_linear_22_1928)"/>
<path d="M18.2828 17.917V22.0168C18.2828 22.0168 18.4618 21.88 18.5233 21.7962C19.3863 20.6189 19.6161 18.7687 19.2807 16.8993C18.7945 14.1897 16.73 12.0817 14.77 12.1936L16.8341 13.5668L18.2828 17.917Z" fill="url(#paint8_linear_22_1928)"/>
<path d="M3.73281 23.7113C3.70322 23.7122 3.68172 23.7403 3.68914 23.7696C3.78549 24.1496 4.32525 26.4006 4.41301 29.4623C4.41391 29.4936 4.44418 29.5156 4.47316 29.5055L6.12566 28.9301C6.15378 28.9204 6.18319 28.9394 6.18497 28.9698C6.20807 29.3629 6.31239 31.6719 5.77301 34.3768C5.76599 34.412 5.79891 34.4422 5.8322 34.4306L7.68175 33.7881C7.7106 33.7781 7.74059 33.7975 7.74134 33.8286C7.75185 34.2671 7.79363 37.0168 7.28306 39.862C7.27679 39.897 7.30963 39.9262 7.34256 39.9146L9.4294 39.1843C9.45989 39.1736 9.49144 39.1977 9.49011 39.2306C9.46338 39.8916 9.31741 45.1884 11.3006 48.976C11.3232 49.0192 11.3864 49 11.3846 48.951C11.1337 41.9585 13.7299 36.1612 14.1156 35.3412C14.1333 35.3035 14.0956 35.2658 14.057 35.2795L12.805 35.7233C12.7705 35.7355 12.737 35.704 12.7469 35.6682C12.8979 35.1273 13.8105 32.0252 15.9408 28.0115C15.9606 27.9741 15.9255 27.9305 15.8863 27.9445L14.1625 28.5581C14.1267 28.5708 14.0924 28.5358 14.1048 28.4992C14.8809 26.2019 15.9732 24.1462 16.1867 23.753C16.2035 23.7221 16.1814 23.6846 16.1469 23.6835C16.0889 23.6815 16.0106 23.6778 15.9577 23.671C15.3751 23.5959 14.9336 23.5001 14.46 23.2787C12.7731 22.4512 11.1777 20.9356 10.1872 19.9643C10.1314 19.9103 10.0781 19.8586 10.0276 19.8098C10.0104 19.7931 9.98348 19.7928 9.96592 19.8092C9.87039 19.8979 9.76804 19.9941 9.65911 20.0964C8.79475 20.908 7.50933 22.124 5.93076 23.0712C5.6365 23.2478 5.43641 23.3008 4.90835 23.5075C4.57738 23.6168 4.27168 23.6948 3.73281 23.7113Z" fill="url(#paint9_linear_22_1928)"/>
<defs>
<linearGradient id="paint0_linear_22_1928" x1="10.4887" y1="0.674951" x2="10.6657" y2="49.0026" gradientUnits="userSpaceOnUse">
<stop stop-color="#1862FF"/>
<stop offset="0.0666667" stop-color="#1863FF"/>
<stop offset="0.133333" stop-color="#1766FF"/>
<stop offset="0.2" stop-color="#166BFF"/>
<stop offset="0.266667" stop-color="#1473FF"/>
<stop offset="0.333333" stop-color="#127CFF"/>
<stop offset="0.4" stop-color="#1087FF"/>
<stop offset="0.466667" stop-color="#0D94FF"/>
<stop offset="0.533333" stop-color="#0BA0FF"/>
<stop offset="0.6" stop-color="#08ADFF"/>
<stop offset="0.666667" stop-color="#06B8FF"/>
<stop offset="0.733333" stop-color="#04C2FF"/>
<stop offset="0.8" stop-color="#02C9FF"/>
<stop offset="0.866667" stop-color="#01CEFF"/>
<stop offset="0.933333" stop-color="#00D1FF"/>
<stop offset="1" stop-color="#00D2FF"/>
</linearGradient>
<linearGradient id="paint1_linear_22_1928" x1="10.4887" y1="0.674951" x2="10.6657" y2="49.0026" gradientUnits="userSpaceOnUse">
<stop stop-color="#1862FF"/>
<stop offset="0.0666667" stop-color="#1863FF"/>
<stop offset="0.133333" stop-color="#1766FF"/>
<stop offset="0.2" stop-color="#166BFF"/>
<stop offset="0.266667" stop-color="#1473FF"/>
<stop offset="0.333333" stop-color="#127CFF"/>
<stop offset="0.4" stop-color="#1087FF"/>
<stop offset="0.466667" stop-color="#0D94FF"/>
<stop offset="0.533333" stop-color="#0BA0FF"/>
<stop offset="0.6" stop-color="#08ADFF"/>
<stop offset="0.666667" stop-color="#06B8FF"/>
<stop offset="0.733333" stop-color="#04C2FF"/>
<stop offset="0.8" stop-color="#02C9FF"/>
<stop offset="0.866667" stop-color="#01CEFF"/>
<stop offset="0.933333" stop-color="#00D1FF"/>
<stop offset="1" stop-color="#00D2FF"/>
</linearGradient>
<linearGradient id="paint2_linear_22_1928" x1="10.4887" y1="0.674951" x2="10.6657" y2="49.0026" gradientUnits="userSpaceOnUse">
<stop stop-color="#1862FF"/>
<stop offset="0.0666667" stop-color="#1863FF"/>
<stop offset="0.133333" stop-color="#1766FF"/>
<stop offset="0.2" stop-color="#166BFF"/>
<stop offset="0.266667" stop-color="#1473FF"/>
<stop offset="0.333333" stop-color="#127CFF"/>
<stop offset="0.4" stop-color="#1087FF"/>
<stop offset="0.466667" stop-color="#0D94FF"/>
<stop offset="0.533333" stop-color="#0BA0FF"/>
<stop offset="0.6" stop-color="#08ADFF"/>
<stop offset="0.666667" stop-color="#06B8FF"/>
<stop offset="0.733333" stop-color="#04C2FF"/>
<stop offset="0.8" stop-color="#02C9FF"/>
<stop offset="0.866667" stop-color="#01CEFF"/>
<stop offset="0.933333" stop-color="#00D1FF"/>
<stop offset="1" stop-color="#00D2FF"/>
</linearGradient>
<linearGradient id="paint3_linear_22_1928" x1="10.4887" y1="0.674951" x2="10.6657" y2="49.0026" gradientUnits="userSpaceOnUse">
<stop stop-color="#1862FF"/>
<stop offset="0.0666667" stop-color="#1863FF"/>
<stop offset="0.133333" stop-color="#1766FF"/>
<stop offset="0.2" stop-color="#166BFF"/>
<stop offset="0.266667" stop-color="#1473FF"/>
<stop offset="0.333333" stop-color="#127CFF"/>
<stop offset="0.4" stop-color="#1087FF"/>
<stop offset="0.466667" stop-color="#0D94FF"/>
<stop offset="0.533333" stop-color="#0BA0FF"/>
<stop offset="0.6" stop-color="#08ADFF"/>
<stop offset="0.666667" stop-color="#06B8FF"/>
<stop offset="0.733333" stop-color="#04C2FF"/>
<stop offset="0.8" stop-color="#02C9FF"/>
<stop offset="0.866667" stop-color="#01CEFF"/>
<stop offset="0.933333" stop-color="#00D1FF"/>
<stop offset="1" stop-color="#00D2FF"/>
</linearGradient>
<linearGradient id="paint4_linear_22_1928" x1="10.4887" y1="0.674951" x2="10.6657" y2="49.0026" gradientUnits="userSpaceOnUse">
<stop stop-color="#1862FF"/>
<stop offset="0.0666667" stop-color="#1863FF"/>
<stop offset="0.133333" stop-color="#1766FF"/>
<stop offset="0.2" stop-color="#166BFF"/>
<stop offset="0.266667" stop-color="#1473FF"/>
<stop offset="0.333333" stop-color="#127CFF"/>
<stop offset="0.4" stop-color="#1087FF"/>
<stop offset="0.466667" stop-color="#0D94FF"/>
<stop offset="0.533333" stop-color="#0BA0FF"/>
<stop offset="0.6" stop-color="#08ADFF"/>
<stop offset="0.666667" stop-color="#06B8FF"/>
<stop offset="0.733333" stop-color="#04C2FF"/>
<stop offset="0.8" stop-color="#02C9FF"/>
<stop offset="0.866667" stop-color="#01CEFF"/>
<stop offset="0.933333" stop-color="#00D1FF"/>
<stop offset="1" stop-color="#00D2FF"/>
</linearGradient>
<linearGradient id="paint5_linear_22_1928" x1="10.4887" y1="0.674951" x2="10.6657" y2="49.0026" gradientUnits="userSpaceOnUse">
<stop stop-color="#1862FF"/>
<stop offset="0.0666667" stop-color="#1863FF"/>
<stop offset="0.133333" stop-color="#1766FF"/>
<stop offset="0.2" stop-color="#166BFF"/>
<stop offset="0.266667" stop-color="#1473FF"/>
<stop offset="0.333333" stop-color="#127CFF"/>
<stop offset="0.4" stop-color="#1087FF"/>
<stop offset="0.466667" stop-color="#0D94FF"/>
<stop offset="0.533333" stop-color="#0BA0FF"/>
<stop offset="0.6" stop-color="#08ADFF"/>
<stop offset="0.666667" stop-color="#06B8FF"/>
<stop offset="0.733333" stop-color="#04C2FF"/>
<stop offset="0.8" stop-color="#02C9FF"/>
<stop offset="0.866667" stop-color="#01CEFF"/>
<stop offset="0.933333" stop-color="#00D1FF"/>
<stop offset="1" stop-color="#00D2FF"/>
</linearGradient>
<linearGradient id="paint6_linear_22_1928" x1="10.4887" y1="0.674951" x2="10.6657" y2="49.0026" gradientUnits="userSpaceOnUse">
<stop stop-color="#1862FF"/>
<stop offset="0.0666667" stop-color="#1863FF"/>
<stop offset="0.133333" stop-color="#1766FF"/>
<stop offset="0.2" stop-color="#166BFF"/>
<stop offset="0.266667" stop-color="#1473FF"/>
<stop offset="0.333333" stop-color="#127CFF"/>
<stop offset="0.4" stop-color="#1087FF"/>
<stop offset="0.466667" stop-color="#0D94FF"/>
<stop offset="0.533333" stop-color="#0BA0FF"/>
<stop offset="0.6" stop-color="#08ADFF"/>
<stop offset="0.666667" stop-color="#06B8FF"/>
<stop offset="0.733333" stop-color="#04C2FF"/>
<stop offset="0.8" stop-color="#02C9FF"/>
<stop offset="0.866667" stop-color="#01CEFF"/>
<stop offset="0.933333" stop-color="#00D1FF"/>
<stop offset="1" stop-color="#00D2FF"/>
</linearGradient>
<linearGradient id="paint7_linear_22_1928" x1="10.4887" y1="0.674951" x2="10.6657" y2="49.0026" gradientUnits="userSpaceOnUse">
<stop stop-color="#1862FF"/>
<stop offset="0.0666667" stop-color="#1863FF"/>
<stop offset="0.133333" stop-color="#1766FF"/>
<stop offset="0.2" stop-color="#166BFF"/>
<stop offset="0.266667" stop-color="#1473FF"/>
<stop offset="0.333333" stop-color="#127CFF"/>
<stop offset="0.4" stop-color="#1087FF"/>
<stop offset="0.466667" stop-color="#0D94FF"/>
<stop offset="0.533333" stop-color="#0BA0FF"/>
<stop offset="0.6" stop-color="#08ADFF"/>
<stop offset="0.666667" stop-color="#06B8FF"/>
<stop offset="0.733333" stop-color="#04C2FF"/>
<stop offset="0.8" stop-color="#02C9FF"/>
<stop offset="0.866667" stop-color="#01CEFF"/>
<stop offset="0.933333" stop-color="#00D1FF"/>
<stop offset="1" stop-color="#00D2FF"/>
</linearGradient>
<linearGradient id="paint8_linear_22_1928" x1="10.4887" y1="0.674951" x2="10.6657" y2="49.0026" gradientUnits="userSpaceOnUse">
<stop stop-color="#1862FF"/>
<stop offset="0.0666667" stop-color="#1863FF"/>
<stop offset="0.133333" stop-color="#1766FF"/>
<stop offset="0.2" stop-color="#166BFF"/>
<stop offset="0.266667" stop-color="#1473FF"/>
<stop offset="0.333333" stop-color="#127CFF"/>
<stop offset="0.4" stop-color="#1087FF"/>
<stop offset="0.466667" stop-color="#0D94FF"/>
<stop offset="0.533333" stop-color="#0BA0FF"/>
<stop offset="0.6" stop-color="#08ADFF"/>
<stop offset="0.666667" stop-color="#06B8FF"/>
<stop offset="0.733333" stop-color="#04C2FF"/>
<stop offset="0.8" stop-color="#02C9FF"/>
<stop offset="0.866667" stop-color="#01CEFF"/>
<stop offset="0.933333" stop-color="#00D1FF"/>
<stop offset="1" stop-color="#00D2FF"/>
</linearGradient>
<linearGradient id="paint9_linear_22_1928" x1="10.4887" y1="0.674951" x2="10.6657" y2="49.0026" gradientUnits="userSpaceOnUse">
<stop stop-color="#1862FF"/>
<stop offset="0.0666667" stop-color="#1863FF"/>
<stop offset="0.133333" stop-color="#1766FF"/>
<stop offset="0.2" stop-color="#166BFF"/>
<stop offset="0.266667" stop-color="#1473FF"/>
<stop offset="0.333333" stop-color="#127CFF"/>
<stop offset="0.4" stop-color="#1087FF"/>
<stop offset="0.466667" stop-color="#0D94FF"/>
<stop offset="0.533333" stop-color="#0BA0FF"/>
<stop offset="0.6" stop-color="#08ADFF"/>
<stop offset="0.666667" stop-color="#06B8FF"/>
<stop offset="0.733333" stop-color="#04C2FF"/>
<stop offset="0.8" stop-color="#02C9FF"/>
<stop offset="0.866667" stop-color="#01CEFF"/>
<stop offset="0.933333" stop-color="#00D1FF"/>
<stop offset="1" stop-color="#00D2FF"/>
</linearGradient>
</defs>
</svg>
